<svg width="21" height="24" viewBox="0 0 21 24" fill="none" xmlns="http://www.w3.org/2000/svg">
<path fill-rule="evenodd" clip-rule="evenodd" d="M9.45391 0.0342319C6.65916 0.33352 4.34331 2.47048 3.84157 5.21291L3.7658 5.62714L2.18434 5.64117L0.602892 5.6552L0.412781 5.78108C0.308249 5.85028 0.172563 5.98752 0.111336 6.08605L0 6.26513V14.8276V23.3901L0.111336 23.5692C0.172563 23.6677 0.308296 23.8049 0.412875 23.8741L0.603079 24H6.35734H12.1116L12.3018 23.8741C12.5947 23.6803 12.7147 23.451 12.7147 23.0851C12.7147 22.7192 12.5947 22.4899 12.3018 22.2961L12.1117 22.1702L6.98242 22.1577L1.85325 22.1451V14.8268V7.50845H2.78925H3.72526L3.73934 9.06846C3.75332 10.617 3.75421 10.6298 3.86475 10.8076C3.92597 10.9061 4.06171 11.0433 4.16629 11.1125C4.32473 11.2174 4.40857 11.2384 4.66831 11.2384C4.92804 11.2384 5.01188 11.2174 5.17032 11.1125C5.2749 11.0433 5.41064 10.9061 5.47186 10.8076C5.5824 10.6298 5.58329 10.617 5.59728 9.06846L5.61135 7.50845H10.1108H14.6102L14.6242 9.06846C14.6382 10.617 14.6391 10.6298 14.7496 10.8076C14.8109 10.9061 14.9466 11.0433 15.0512 11.1125C15.2096 11.2174 15.2935 11.2384 15.5532 11.2384C15.8129 11.2384 15.8968 11.2174 16.0552 11.1125C16.1598 11.0433 16.2955 10.9061 16.3568 10.8076C16.4673 10.6298 16.4682 10.617 16.4822 9.06846L16.4962 7.50845H17.4313H18.3663L18.379 11.6958L18.3917 15.8832L18.5031 16.0623C18.5643 16.1609 18.7 16.2981 18.8046 16.3673C18.9625 16.4718 19.0472 16.4932 19.3032 16.4932C19.6728 16.4932 19.9012 16.3742 20.0956 16.0803L20.2215 15.8901V11.0776V6.26513L20.1102 6.08605C20.0489 5.98752 19.9133 5.85028 19.8087 5.78108L19.6186 5.6552L18.0372 5.64117L16.4557 5.62714L16.3796 5.21122C16.2397 4.4466 15.9063 3.61119 15.4707 2.93398C14.1826 0.931297 11.8 -0.217012 9.45391 0.0342319ZM11.1967 2.01233C12.0475 2.23584 12.6949 2.61503 13.3246 3.25841C13.9154 3.8622 14.312 4.57046 14.4926 5.34456L14.5596 5.63174H10.1108H5.66188L5.72888 5.34456C5.90947 4.57046 6.30606 3.8622 6.89689 3.25841C7.60446 2.53541 8.3534 2.13084 9.3292 1.94458C9.79448 1.85576 10.7299 1.88968 11.1967 2.01233ZM17.1114 18.4436C16.9005 18.5081 16.6021 18.8182 16.5418 19.0354C16.5145 19.1338 16.492 19.4498 16.4918 19.7376L16.4916 20.2609L15.8664 20.2772C15.2805 20.2925 15.2292 20.3014 15.0511 20.4194C14.7573 20.6139 14.6383 20.8423 14.6383 21.2118C14.6383 21.4679 14.6597 21.5525 14.7642 21.7104C14.8334 21.815 14.9706 21.9507 15.0692 22.012C15.2293 22.1115 15.3135 22.125 15.8654 22.1395L16.4825 22.1558L16.4988 22.7729C16.5133 23.3248 16.5268 23.409 16.6263 23.5692C16.6876 23.6677 16.8233 23.8049 16.9279 23.8741C17.0863 23.979 17.1702 24 17.4299 24C17.6896 24 17.7735 23.979 17.9319 23.8741C18.0365 23.8049 18.1722 23.6677 18.2335 23.5692C18.333 23.409 18.3465 23.3248 18.361 22.7729L18.3773 22.1558L18.9944 22.1395C19.5463 22.125 19.6305 22.1115 19.7907 22.012C19.8892 21.9507 20.0264 21.815 20.0956 21.7104C20.2001 21.5525 20.2215 21.4679 20.2215 21.2118C20.2215 20.8423 20.1025 20.6139 19.8087 20.4194C19.6308 20.3015 19.579 20.2925 18.9979 20.2773L18.3773 20.261L18.361 19.6439C18.3465 19.092 18.333 19.0078 18.2335 18.8476C18.0122 18.4917 17.5261 18.3167 17.1114 18.4436Z" fill="white"/>
</svg>
